# xmcd
#
# Track frame offsets: 
#        150
#        13672
#        28465
#        39217
#        48937
#        61777
#        70905
#        81550
#        99340
#        112047
#        129502
#        143407
#        158377
#        171875
#        184150
#        200127
#        213207
#        224635
#        239787
#        252362
#        262807
#        273450
#        286902
#        300037
#
# Disc length: 4184 seconds
#
# Revision: 10
# Processed by: cddbd v1.5.2PL0 Copyright (c) Steve Scherf et al.
# Submitted via: ExactAudioCopyFreeDBPlugin 1.0
#
DISCID=59105618
DTITLE=Various Artists / Spaced Out:  The Very Best of Leonard Nimoy a
DTITLE=nd William Shatner
DYEAR=1997
DGENRE=Comedy
TTITLE0=William Shatner / King Henry the Fifth
TTITLE1=William Shatner / Elegy for the Brave
TTITLE2=Leonard Nimoy / Highly Illogical
TTITLE3=Leonard Nimoy / If I Had a Hammer (The Hammer Song)
TTITLE4=William Shatner / Mr Tambourine Man
TTITLE5=Leonard Nimoy / Where is Love
TTITLE6=Leonard Nimoy / Music to Watch Space Girls By
TTITLE7=William Shatner / It Was a Very Good Year
TTITLE8=Leonard Nimoy / Ruby Don't Take Your Love to Town
TTITLE9=William Shatner / Hamlet
TTITLE10=Leonard Nimoy / A Visit to a Sad Planet
TTITLE11=Leonard Nimoy / Abraham, Martin and John
TTITLE12=William Shatner / Lucy in the Sky with Diamonds
TTITLE13=Leonard Nimoy / If I Was a Carpenter
TTITLE14=William Shatner / How Insensitive
TTITLE15=Leonard Nimoy / I'd Love Making Love to You
TTITLE16=Leonard Nimoy / Put a Little Love in Your Heart
TTITLE17=Leonard Nimoy / Sunny
TTITLE18=Leonard Nimoy / Gentle on My Mind
TTITLE19=Leonard Nimoy / I Walk the Line
TTITLE20=Leonard Nimoy / Ballad of Bilbo Baggins
TTITLE21=Leonard Nimoy / Everybody's Talkin'
TTITLE22=Leonard Nimoy / Both Sides Now
TTITLE23=Leonard Nimoy / Spock Thoughts
EXTD=
EXTT0=
EXTT1=
EXTT2=
EXTT3=
EXTT4=
EXTT5=
EXTT6=
EXTT7=
EXTT8=
EXTT9=
EXTT10=
EXTT11=
EXTT12=
EXTT13=
EXTT14=
EXTT15=
EXTT16=
EXTT17=
EXTT18=
EXTT19=
EXTT20=
EXTT21=
EXTT22=
EXTT23=
PLAYORDER=
.
